<?xml version="1.0" standalone="no"?>
<!DOCTYPE svg PUBLIC "-//W3C//DTD SVG 20010904//EN"
 "http://www.w3.org/TR/2001/REC-SVG-20010904/DTD/svg10.dtd">
<svg version="1.0" xmlns="http://www.w3.org/2000/svg"
 width="1001.000000pt" height="1001.000000pt" viewBox="0 0 1001.000000 1001.000000"
 preserveAspectRatio="xMidYMid meet">
<metadata>
Created by potrace 1.11, written by Peter Selinger 2001-2013
</metadata>
<g transform="translate(0.000000,1001.000000) scale(0.100000,-0.100000)"
fill="#000000" stroke="none">
<path d="M0 5010 l0 -5000 5005 0 5005 0 0 5000 0 5000 -5005 0 -5005 0 0
-5000z m5066 2465 c462 -60 840 -242 1163 -558 114 -112 189 -202 271 -327 69
-105 162 -292 205 -413 19 -54 32 -76 41 -73 35 13 289 27 384 21 464 -30 866
-210 1185 -530 229 -229 386 -507 459 -813 37 -155 47 -238 46 -402 0 -168
-10 -263 -45 -410 -176 -729 -806 -1264 -1579 -1339 -149 -15 -4467 -15 -4621
-1 -513 49 -938 352 -1133 810 -83 195 -107 334 -99 564 12 342 132 613 385
869 190 192 416 312 702 374 63 13 128 18 253 18 l167 0 -7 65 c-16 130 -8
407 15 535 148 846 829 1491 1698 1609 134 19 376 19 510 1z"/>
</g>
</svg>
